<?xml version="1.0" standalone="no"?>
<!DOCTYPE svg PUBLIC "-//W3C//DTD SVG 20010904//EN"
 "http://www.w3.org/TR/2001/REC-SVG-20010904/DTD/svg10.dtd">
<svg version="1.0" xmlns="http://www.w3.org/2000/svg"
 width="100.000000pt" height="100.000000pt" viewBox="0 0 100.000000 100.000000"
 preserveAspectRatio="xMidYMid meet">

<g transform="translate(0.000000,100.000000) scale(0.100000,-0.100000)"
fill="#000000" stroke="none">
<path d="M242 810 c-18 -11 -41 -34 -52 -52 -18 -30 -20 -51 -20 -259 0 -218
1 -227 23 -260 43 -66 64 -70 319 -67 211 3 229 4 255 24 58 42 63 67 63 309
0 246 -4 264 -72 305 -30 18 -51 20 -258 20 -207 0 -228 -2 -258 -20z m104
-31 c-105 -92 -123 -268 -40 -389 19 -27 34 -56 34 -64 0 -8 -14 -26 -32 -40
l-32 -25 29 -7 c15 -4 50 -1 77 6 40 10 65 10 127 0 50 -9 90 -10 115 -4 33 8
28 9 -48 12 -149 5 -180 5 -231 -3 l-50 -8 28 30 c35 38 34 53 -7 107 -85 111
-69 271 36 376 l42 41 173 -3 173 -3 32 -33 33 -32 0 -240 0 -240 -33 -32 -32
-33 -240 0 -240 0 -32 33 -33 32 0 239 0 239 25 27 c32 35 54 44 113 44 l48 1
-35 -31z"/>
<path d="M594 615 c-4 -21 -9 -33 -13 -28 -3 6 -27 11 -53 12 -52 1 -68 -14
-68 -64 0 -50 16 -65 68 -64 26 1 51 7 55 13 6 8 10 7 14 -1 2 -7 13 -13 24
-13 18 0 20 6 17 87 -3 73 -6 88 -20 91 -12 2 -19 -6 -24 -33z m36 -55 c0 -47
-4 -80 -10 -80 -6 0 -10 33 -10 80 0 47 4 80 10 80 6 0 10 -33 10 -80z m-60
-25 l0 -52 -37 -1 c-46 -2 -63 12 -63 52 0 42 16 56 62 54 l38 -1 0 -52z"/>
<path d="M502 558 c-16 -16 -15 -33 4 -48 22 -19 54 12 38 37 -14 22 -27 26
-42 11z m35 -14 c8 -21 -13 -42 -28 -27 -13 13 -5 43 11 43 6 0 13 -7 17 -16z"/>
<path d="M327 626 c-7 -19 1 -26 30 -26 30 0 29 -8 -8 -58 -42 -58 -34 -72 41
-72 53 0 60 2 60 20 0 16 -7 20 -30 20 -16 0 -30 3 -30 6 0 3 14 26 31 50 17
25 28 52 25 60 -7 20 -112 20 -119 0z m113 -6 c0 -5 -16 -32 -35 -58 -19 -27
-32 -52 -28 -55 3 -4 19 -7 35 -7 15 0 28 -4 28 -10 0 -5 -25 -10 -55 -10 -30
0 -55 3 -55 8 0 4 16 31 35 59 19 29 35 55 35 58 0 3 -16 5 -36 5 -21 0 -33 4
-29 10 8 13 105 13 105 0z"/>
<path d="M666 578 c-34 -49 -7 -108 49 -108 24 0 39 7 49 22 34 49 7 108 -49
108 -24 0 -39 -7 -49 -22z m88 -4 c20 -20 20 -58 0 -78 -34 -34 -94 -9 -94 39
0 30 25 55 55 55 13 0 31 -7 39 -16z"/>
<path d="M694 556 c-10 -26 0 -51 21 -51 16 0 20 7 20 30 0 33 -30 49 -41 21z
m36 -21 c0 -16 -6 -25 -15 -25 -9 0 -15 9 -15 25 0 16 6 25 15 25 9 0 15 -9
15 -25z"/>
<path d="M704 284 c-18 -14 -18 -15 4 -4 12 6 22 13 22 15 0 8 -5 6 -26 -11z"/>
</g>
</svg>
